<?xml version="1.0"?>
<svg xmlns="http://www.w3.org/2000/svg" xmlns:xlink="http://www.w3.org/1999/xlink" xmlns:svgjs="http://svgjs.com/svgjs" version="1.1" width="512" height="512" x="0" y="0" viewBox="0 0 510 510" style="enable-background:new 0 0 512 512" xml:space="preserve" class=""><g><g xmlns="http://www.w3.org/2000/svg"><path d="m255 300c-41.355 0-75 33.645-75 75s33.645 75 75 75 75-33.645 75-75-33.645-75-75-75zm0 120c-24.813 0-45-20.186-45-45s20.187-45 45-45 45 20.186 45 45-20.187 45-45 45z" fill="#3456d8" data-original="#000000" style="" class=""/><path d="m452.738 71.525-71.525-71.525h-252.426l-71.525 71.525 92.315 219.251c-18.497 23.106-29.577 52.393-29.577 84.224 0 74.44 60.561 135 135 135s135-60.56 135-135c0-31.831-11.08-61.118-29.577-84.224zm-115.337 196.618c-12.81-9.9-27.44-17.553-43.296-22.36l69.457-164.961 16.607-39.44 37.094 37.094zm-91.263-27.844-63.283-150.299h144.291l-63.284 150.299c-6.097-.398-11.618-.399-17.724 0zm-75.915-180.299-12.631-30h194.816l-12.631 30zm-40.391-18.619 16.607 39.44 69.457 164.961c-15.857 4.808-30.487 12.46-43.297 22.36l-79.861-189.667zm125.168 438.619c-57.897 0-105-47.103-105-105s47.103-105 105-105 105 47.103 105 105-47.103 105-105 105z" fill="#3456d8" data-original="#000000" style="" class=""/></g></g></svg>
